<mxfile host="app.diagrams.net" modified="2021-12-09T12:07:23.554Z" agent="5.0 (Macintosh; Intel Mac OS X 10_15_7) AppleWebKit/537.36 (KHTML, like Gecko) Chrome/96.0.4664.55 Safari/537.36" etag="J9OEO153ZAHMDJI9IZHk" version="15.6.8" type="github">
  <diagram id="ubFRAPRlWRe9rWZ4teGV" name="Page-1">
    <mxGraphModel dx="1234" dy="747" grid="1" gridSize="10" guides="1" tooltips="1" connect="1" arrows="1" fold="1" page="1" pageScale="1" pageWidth="850" pageHeight="1100" math="0" shadow="0">
      <root>
        <mxCell id="0" />
        <mxCell id="1" parent="0" />
      </root>
    </mxGraphModel>
  </diagram>
</mxfile>
